<?xml version="1.0" standalone="no"?>
<!DOCTYPE svg PUBLIC "-//W3C//DTD SVG 20010904//EN"
 "http://www.w3.org/TR/2001/REC-SVG-20010904/DTD/svg10.dtd">
<svg version="1.0" xmlns="http://www.w3.org/2000/svg"
 width="259.000000pt" height="194.000000pt" viewBox="0 0 259.000000 194.000000"
 preserveAspectRatio="xMidYMid meet">

<g transform="translate(0.000000,194.000000) scale(0.100000,-0.100000)"
fill="#000000" stroke="none">
<path d="M1335 1411 c-4 -21 -16 -32 -43 -43 l-37 -14 36 -12 c28 -10 39 -20
46 -45 l10 -32 15 36 c12 28 24 38 49 44 l34 7 -38 16 c-28 11 -40 22 -44 44
-7 36 -20 36 -28 -1z"/>
<path d="M1160 1323 c-30 -15 -80 -52 -111 -82 -207 -208 -148 -547 119 -678
73 -37 80 -38 182 -38 102 0 109 1 181 37 40 20 87 50 103 67 l30 31 -42 43
-42 43 31 62 c75 151 14 329 -140 404 -35 18 -63 23 -121 23 -125 0 -223 -62
-273 -174 -30 -66 -29 -169 2 -239 41 -92 154 -172 243 -172 23 0 28 4 28 25
0 21 -5 25 -27 25 -42 0 -125 43 -157 81 -85 100 -80 242 10 333 74 73 194 94
282 48 23 -12 42 -25 42 -29 0 -3 -34 -39 -77 -80 l-76 -74 -26 24 c-33 31
-64 38 -102 25 -61 -21 -77 -102 -30 -149 37 -37 75 -38 126 -3 l38 26 121
-122 c137 -137 136 -126 26 -179 -48 -22 -68 -26 -150 -26 -88 0 -101 3 -162
33 -148 72 -233 232 -208 388 24 145 112 248 267 309 1 0 0 11 -4 23 -7 28
-15 27 -83 -5z m403 -262 c9 -16 20 -50 23 -75 7 -45 6 -46 -20 -46 -19 0 -26
5 -26 20 0 11 -7 38 -16 60 -13 32 -14 43 -4 55 17 21 23 19 43 -14z m-268
-101 c17 -19 17 -20 -6 -39 -38 -32 -79 -22 -79 19 0 41 55 54 85 20z"/>
</g>
</svg>
